<?xml version="1.0" standalone="no"?>
<!DOCTYPE svg PUBLIC "-//W3C//DTD SVG 1.1//EN" "http://www.w3.org/Graphics/SVG/1.1/DTD/svg11.dtd" >
<svg xmlns="http://www.w3.org/2000/svg">
<metadata>
Created by FontPrep 20130207 at Mon Jun  2 20:41:01 2014
 By Chris W. Burke
Copyright Copr. 1999, Luc[as] de Groot &#60;www.FontFabrik.com&#62;. All rights reserved. Published by FontShop International &#60;www.fontfont.de&#62;
</metadata>
<defs>
<font id="4e2b4d4407bb66a2984f40900351939e" horiz-adv-x='1024' >
  <font-face 
    font-family="TheSans-B5PlainItalic"
    font-weight="400"
    font-style="italic"
    font-stretch="normal"
    units-per-em="2048"
    panose-1="2 0 5 3 0 0 0 0 0 0"
    ascent="1638"
    descent="-410"
    x-height="1018"
    cap-height="1382"
    bbox="-362 -524.008 2090 1755"
    underline-thickness="145"
    underline-position="-438"
    slope="-11"
    unicode-range="U+0020-FFFD"
  />
<missing-glyph 
 />
    <glyph glyph-name=".notdef" unicode="&#xfffd;" 
 />
    <glyph glyph-name=".null" horiz-adv-x="0" 
 />
    <glyph glyph-name="nonmarkingreturn" horiz-adv-x="681" 
 />
    <glyph glyph-name="space" unicode=" " horiz-adv-x="446" 
 />
    <glyph glyph-name="exclam" unicode="!" horiz-adv-x="643" 
d="M391 104q0 -51 -36 -87q-36 -35 -88 -35t-86 34t-34 84q0 51 37 87t89 36t85 -34t33 -85zM629 1440l-238 -1096h-151l176 1096h213z" />
    <glyph glyph-name="quotedbl" unicode="&#x22;" horiz-adv-x="733" 
d="M475 1432l-119 -471h-131l60 471h190zM811 1432l-119 -471h-133l62 471h190z" />
    <glyph glyph-name="numbersign" unicode="#" 
d="M799 844h-299l-101 -344h299zM1155 971l-25 -127h-190l-102 -344h178l-25 -127h-190l-113 -373h-139l110 373h-299l-110 -373h-141l112 373h-180l25 127h192l102 344h-180l25 127h192l107 360h139l-104 -360h299l104 360h141l-106 -360h178z" />
    <glyph glyph-name="dollar" unicode="$" 
d="M728 1155q-126 0 -199 -55q-73 -56 -73 -128t49 -118q48 -46 117 -80q70 -33 138 -71q68 -37 116 -105t48 -162q0 -141 -115 -256t-297 -139l-41 -215h-137l39 207q-121 0 -240 30l37 173q113 -48 253 -48t221 62t81 139q0 76 -47 126t-115 83q-69 33 -137 70
q-68 38 -115 104t-47 158q0 140 110 244t283 124l37 197h140l-37 -188q96 -2 202 -25l-34 -162q-111 35 -237 35z" />
    <glyph glyph-name="percent" unicode="%" horiz-adv-x="1505" 
d="M1247 380q0 118 -108 118q-83 0 -141 -79t-58 -197t109 -118q82 0 140 79t58 197zM637 1109q0 118 -109 118q-82 0 -140 -79t-58 -197t106 -117q82 0 142 78q59 79 59 197zM1395 397q0 -188 -111 -303q-111 -114 -241 -114q-252 1 -252 225q0 188 110 302
q111 114 252 114q242 -1 242 -224zM1460 1280l-1251 -1323l-100 90l1251 1323zM784 1128q0 -188 -110 -303t-241 -115q-251 1 -253 226q0 186 111 301t241 115t191 -59t61 -165z" />
    <glyph glyph-name="ampersand" unicode="&#x26;" horiz-adv-x="1595" 
d="M920 285q-250 258 -373 430q-129 -92 -199 -175q-70 -84 -70 -182t60 -159q59 -61 178 -62q220 1 404 148zM848 1239q0 127 -144 127q-76 0 -130 -56q-56 -56 -56 -140t92 -230q80 57 121 91q41 33 79 91t38 117zM724 1507q308 -1 308 -251q0 -120 -86 -218t-254 -219
q127 -178 363 -413q190 203 233 512h182q-51 -362 -294 -621q102 -100 241 -209l-127 -127q-123 96 -250 213q-250 -195 -565 -194q-195 0 -292 94t-97 248t98 272q98 119 275 242q-123 196 -123 328t113 238t275 105z" />
    <glyph glyph-name="quotesingle" unicode="'" horiz-adv-x="399" 
d="M475 1432l-119 -471h-131l60 471h190z" />
    <glyph glyph-name="parenleft" unicode="(" horiz-adv-x="608" 
d="M299 248q0 -342 109 -610l-144 -66q-141 328 -141 679t137 699t383 652l125 -68q-203 -254 -336 -599t-133 -687z" />
    <glyph glyph-name="parenright" unicode=")" horiz-adv-x="608" 
d="M532 922q0 -352 -137 -699q-137 -348 -383 -651l-125 68q203 254 336 599t133 686t-108 611l143 66q141 -328 141 -680z" />
    <glyph glyph-name="asterisk" unicode="*" horiz-adv-x="749" 
d="M819 1268l-225 -84l186 -105l-86 -110l-159 143l-25 -235l-137 18l67 217l-194 -125l-51 123l223 84l-187 104l84 111l160 -141l25 233l137 -18l-70 -217l201 127z" />
    <glyph glyph-name="plus" unicode="+" 
d="M1077 686l-30 -154h-392l-77 -411h-175l78 411h-387l29 154h389l78 410h174l-78 -410h391z" />
    <glyph glyph-name="comma" unicode="," horiz-adv-x="458" 
d="M176 231q76 0 105 -81q41 -119 -84 -279q-74 -96 -199 -184l-68 77q207 176 140 295q-34 53 -2 113t108 59z" />
    <glyph glyph-name="hyphen" unicode="-" horiz-adv-x="671" 
d="M610 664l-30 -152h-480l29 152h481z" />
    <glyph glyph-name="period" unicode="." horiz-adv-x="462" 
d="M295 111q0 -53 -38 -91t-89 -38t-87 36t-36 89t38 91t90 38t87 -36t35 -89z" />
    <glyph glyph-name="slash" unicode="/" horiz-adv-x="878" 
d="M1075 1550l-1063 -1880h-182l1065 1880h180z" />
    <glyph glyph-name="zero" unicode="0" 
d="M897 956q0 112 -44 176t-148 64q-105 0 -189 -92q-136 -148 -194 -470q-59 -322 19 -433q43 -63 149 -63t189 91q83 92 128 227q90 268 90 500zM1092 954q0 -313 -140 -621q-70 -155 -198 -254t-291 -99q-362 0 -363 397q0 315 141 621q71 155 198 254q128 99 292 100
q361 -1 361 -398z" />
    <glyph glyph-name="one" unicode="1" 
d="M952 166l-30 -166h-863l31 166h356l187 977l-350 -127l-2 172l428 143h151l-221 -1165h313z" />
    <glyph glyph-name="two" unicode="2" 
d="M1038 1030q0 -141 -88 -279t-342 -341l-295 -236v-2q168 4 422 4h197l-33 -176h-874l28 152l373 305q242 201 324 311t82 210t-56 154q-55 54 -162 54q-168 0 -321 -105l-27 162q194 107 388 107t289 -90t95 -230z" />
    <glyph glyph-name="three" unicode="3" 
d="M844 1047q0 151 -234 151q-122 0 -284 -76l-4 160q182 70 358 70t270 -74t94 -200t-85 -222t-228 -135l-4 -2q111 -14 171 -85t60 -164t-36 -174q-85 -194 -311 -271q-129 -45 -281 -45t-258 32l41 166q106 -41 235 -41q199 0 302 88t104 207q0 238 -494 178l29 148h45
q264 0 387 84t123 205z" />
    <glyph glyph-name="four" unicode="4" 
d="M807 1141h-2l-565 -672q184 6 438 6zM1022 1331l-164 -856h221l-32 -168h-222l-57 -307h-182l57 307h-616l14 152l729 872h252z" />
    <glyph glyph-name="five" unicode="5" 
d="M545 811q209 0 315 -86t107 -225q1 -219 -179 -369t-456 -149q-152 0 -250 24l33 172q113 -39 239 -39q186 0 298 92t112 238q0 195 -309 195q-121 0 -224 -17l131 684h721l-34 -176h-547l-68 -348q74 4 111 4z" />
    <glyph glyph-name="six" unicode="6" 
d="M840 485q0 93 -56 147t-163 54q-143 0 -237 -99t-93 -216q0 -238 225 -240q136 0 230 101t94 253zM909 1192q-379 0 -544 -420q-23 -55 -41 -106h2q57 82 152 127t200 45q172 0 263 -86t91 -230q0 -229 -159 -386t-396 -156q-182 0 -278 103q-97 103 -97 311t106 450
q60 137 150 248q90 110 243 184t343 74q76 -1 125 -9l-29 -159q-66 10 -131 10z" />
    <glyph glyph-name="seven" unicode="7" 
d="M434 1151h-194l34 180h900l-31 -160q-420 -580 -729 -1171h-221q367 655 731 1155q-94 -4 -490 -4z" />
    <glyph glyph-name="eight" unicode="8" 
d="M795 373q-1 78 -55 127t-160 100q-178 -84 -245 -159t-67 -149t60 -119q60 -44 174 -44q115 1 204 65t89 179zM895 1048q0 156 -211 156q-108 0 -182 -70t-74 -146q0 -78 48 -124t140 -96q156 78 218 140q61 63 61 140zM1087 1080q1 -126 -77 -215t-246 -175
q106 -59 166 -126t59 -167q1 -186 -155 -302q-156 -115 -354 -115t-303 74q-103 75 -103 208q0 134 90 232t266 184q-192 108 -192 270t140 283t330 121t285 -73q94 -73 94 -199z" />
    <glyph glyph-name="nine" unicode="9" 
d="M895 975q0 101 -57 163t-162 62q-141 0 -233 -107q-91 -108 -91 -247q0 -96 54 -148t153 -53q137 0 237 95q99 96 99 235zM268 -18q-124 0 -196 14l30 166q82 -20 172 -21q389 0 537 402q31 78 35 86h-2q-136 -141 -318 -141t-273 84q-91 85 -91 237q0 215 150 379
q151 164 393 164q180 0 280 -96t100 -314t-106 -472q-86 -201 -256 -338q-84 -66 -207 -108q-124 -42 -248 -42z" />
    <glyph glyph-name="colon" unicode=":" horiz-adv-x="583" 
d="M379 110q0 -52 -38 -90t-90 -38t-89 36t-37 89t38 91t90 38t89 -37t37 -89zM494 709q0 -53 -38 -91t-90 -36q-52 0 -90 35q-36 35 -36 89t38 92t91 38t89 -37t36 -90z" />
    <glyph glyph-name="semicolon" unicode=";" horiz-adv-x="583" 
d="M262 231q76 0 105 -81q41 -119 -84 -279q-74 -96 -199 -184l-68 77q207 176 140 295q-34 53 -2 113t108 59zM494 709q0 -53 -38 -91t-90 -36q-52 0 -90 35q-36 35 -36 89t38 92t91 38t89 -37t36 -90z" />
    <glyph glyph-name="less" unicode="&#x3c;" 
d="M1020 1073l-612 -455l448 -460l-133 -119l-551 594l741 567z" />
    <glyph glyph-name="equal" unicode="=" 
d="M1016 510l-29 -152h-899l31 152h897zM1081 860l-26 -153h-899l28 153h897z" />
    <glyph glyph-name="greater" unicode="&#x3e;" 
d="M1004 606l-742 -567l-106 127l610 455l-447 460l134 119z" />
    <glyph glyph-name="question" unicode="?" horiz-adv-x="894" 
d="M434 104q0 -51 -36 -87q-36 -35 -88 -35t-86 34t-34 84q0 51 37 87t88 36t85 -34t34 -85zM870 1083q0 -81 -34 -149t-86 -113t-110 -96t-106 -98t-74 -121t-14 -162h-180q-16 119 19 213q35 95 97 155t127 111q159 125 159 236q0 90 -96 150t-250 77l55 168
q233 -18 363 -123t130 -248z" />
    <glyph glyph-name="at" unicode="@" horiz-adv-x="1974" 
d="M778 522q0 -106 70 -106q84 0 174 110t147 314l31 108q-45 12 -108 13q-122 1 -218 -133t-96 -306zM1833 899q0 -267 -144 -451t-368 -184q-121 0 -170 66t-27 157h-6q-37 -75 -131 -149t-188 -74q-180 0 -181 219q0 165 79 330t238 237q89 40 213 40t232 -29l-120 -436
q-59 -209 94 -209q135 0 224 134t89 337t-127 335t-391 132q-219 0 -401 -119t-284 -315t-104 -432q0 -234 144 -372t416 -139q172 0 350 54l10 -150q-184 -57 -393 -57q-334 0 -516 173q-183 173 -183 463t131 526q131 237 359 376t493 139q326 0 494 -167t168 -435z" />
    <glyph glyph-name="A" unicode="A" horiz-adv-x="1239" 
d="M854 473l-86 508q-8 49 -23 190h-2q-55 -119 -92 -186l-276 -512h479zM1122 0h-198l-50 324h-577l-174 -324h-197l758 1382h205z" />
    <glyph glyph-name="B" unicode="B" horiz-adv-x="1142" 
d="M836 457q0 186 -295 186q-123 0 -156 -2l-92 -483q57 -10 168 -11q175 -1 275 89t100 221zM915 1081q0 76 -52 116q-51 40 -151 40t-214 -4l-86 -447q39 -2 118 -2q172 0 279 79q106 79 106 218zM1112 1112q0 -138 -81 -238t-206 -143v-2q95 -20 151 -92t56 -164
q0 -203 -161 -341t-441 -138q-49 0 -179 3t-171 3l262 1382q295 6 387 7q383 0 383 -277z" />
    <glyph glyph-name="C" unicode="C" horiz-adv-x="1150" 
d="M889 1233q-241 0 -384 -161q-189 -212 -192 -580q0 -164 79 -252t254 -88t331 67l6 -164q-184 -72 -377 -71q-498 0 -497 475q0 376 200 649q96 131 250 209t333 78t318 -41l-51 -170q-141 49 -270 49z" />
    <glyph glyph-name="D" unicode="D" horiz-adv-x="1359" 
d="M1133 868q0 367 -422 367q-55 0 -215 -6l-203 -1065q76 -12 166 -12q174 0 309 64t212 171q153 211 153 481zM1331 887q0 -360 -218 -618q-108 -129 -283 -203t-398 -74q-82 0 -196 4t-156 4l262 1380l397 9q305 0 449 -133t143 -369z" />
    <glyph glyph-name="E" unicode="E" horiz-adv-x="1005" 
d="M1038 1382l-30 -155h-512l-84 -439h489l-29 -151h-489l-90 -479h514l-31 -158h-696l262 1382h696z" />
    <glyph glyph-name="F" unicode="F" horiz-adv-x="940" 
d="M1032 1382l-31 -155h-505l-84 -449h479l-29 -151h-481l-119 -627h-182l262 1382h690z" />
    <glyph glyph-name="G" unicode="G" horiz-adv-x="1368" 
d="M952 1239q-281 0 -464 -207t-183 -504q0 -160 97 -272t300 -111q131 0 265 41l98 519h184l-123 -646q-213 -77 -473 -77t-403 143t-144 385q0 387 249 639t618 252q211 -1 377 -58l-54 -178q-170 74 -344 74z" />
    <glyph glyph-name="H" unicode="H" horiz-adv-x="1400" 
d="M1399 1382l-264 -1382h-183l121 637h-690l-123 -637h-184l262 1382h184l-110 -585h690l112 585h185z" />
    <glyph glyph-name="I" unicode="I" horiz-adv-x="526" 
d="M524 1382l-262 -1382h-182l262 1382h182z" />
    <glyph glyph-name="J" unicode="J" horiz-adv-x="657" 
d="M77 143q166 0 208 219l192 1020h185l-197 -1032q-70 -365 -406 -364q-86 0 -151 16l33 164q59 -23 136 -23z" />
    <glyph glyph-name="K" unicode="K" horiz-adv-x="1128" 
d="M1245 1382l-659 -684l403 -698h-231l-367 684l-129 -684h-184l262 1382h184l-125 -651l607 651h239z" />
    <glyph glyph-name="L" unicode="L" horiz-adv-x="854" 
d="M778 162l-30 -162h-668l262 1382h182l-229 -1220h483z" />
    <glyph glyph-name="M" unicode="M" horiz-adv-x="1779" 
d="M1651 1382l-60 -1382h-190l37 788q10 227 22 351h-4q-55 -135 -115 -250l-456 -889h-197l-113 831q-27 176 -26 308h-2q-61 -215 -107 -359l-241 -780h-195l461 1382h221l119 -870q18 -129 22 -274h2q53 121 125 262l459 882h238z" />
    <glyph glyph-name="N" unicode="N" horiz-adv-x="1396" 
d="M1399 1382l-264 -1382h-215l-355 846q-61 145 -102 293q-39 -256 -86 -514l-117 -625h-182l262 1382h219l348 -827q51 -119 109 -303l84 493l117 637h182z" />
    <glyph glyph-name="O" unicode="O" horiz-adv-x="1415" 
d="M1192 879q0 168 -83 263t-247 95q-242 0 -402 -214t-159 -513q0 -170 83 -266t239 -97q237 -1 403 213t166 519zM1391 899q1 -391 -231 -655t-564 -264q-246 0 -370 131t-124 372q0 379 228 649t563 271q240 0 369 -131t129 -373z" />
    <glyph glyph-name="P" unicode="P" horiz-adv-x="1048" 
d="M893 1030q0 207 -254 207q-61 0 -143 -4l-103 -543q41 -8 111 -8q158 0 274 100t115 248zM1087 1057q0 -229 -182 -381t-430 -152q-61 0 -113 6l-100 -530h-184l262 1382q205 8 334 9q201 0 307 -89t106 -245z" />
    <glyph glyph-name="Q" unicode="Q" horiz-adv-x="1415" 
d="M1192 879q0 168 -83 263t-247 95q-242 0 -402 -214t-159 -513q0 -170 83 -266t239 -97q237 -1 403 213t166 519zM1278 -211l-31 -160q-219 -33 -397 28q-178 60 -356 38l28 158q166 21 380 -33t376 -31zM1391 899q1 -391 -231 -655t-564 -264q-246 0 -370 131t-124 372
q0 381 228 651t563 269q240 0 369 -131t129 -373z" />
    <glyph glyph-name="R" unicode="R" horiz-adv-x="1110" 
d="M887 1059q-1 92 -59 135t-158 43t-172 -4l-90 -471q45 -4 110 -4q160 0 264 81t105 220zM1081 1087q0 -188 -139 -309t-342 -143l354 -635h-221l-327 621h-27l-117 -621h-182l262 1382q125 8 330 9q409 -1 409 -304z" />
    <glyph glyph-name="S" unicode="S" horiz-adv-x="929" 
d="M668 1247q-123 1 -200 -67t-77 -148q0 -136 149 -233q62 -41 124 -87t106 -117q43 -71 43 -161q0 -194 -154 -324t-393 -130q-135 0 -227 30l35 180q104 -45 209 -45q157 0 245 71t88 187t-148 212q-62 40 -124 84q-61 44 -104 115t-43 163q0 180 135 303t375 123
q110 -1 208 -21l-34 -168q-90 33 -213 33z" />
    <glyph glyph-name="T" unicode="T" horiz-adv-x="1036" 
d="M1169 1382l-28 -157h-389l-236 -1225h-182l233 1225h-391l29 157h964z" />
    <glyph glyph-name="U" unicode="U" horiz-adv-x="1386" 
d="M590 -20q-518 0 -422 501l170 901h184l-174 -909q-34 -172 28 -255t242 -83t282 90q101 90 142 301l164 856h180l-165 -876q-98 -526 -631 -526z" />
    <glyph glyph-name="V" unicode="V" horiz-adv-x="1239" 
d="M1386 1382l-759 -1382h-209l-225 1382h196l135 -888q25 -162 33 -287h4q45 109 150 301l477 874h198z" />
    <glyph glyph-name="W" unicode="W" horiz-adv-x="1914" 
d="M2017 1382l-620 -1382h-230l-80 930q-10 121 -6 239h-2q-41 -121 -94 -237l-428 -932h-223l-94 1382h188l57 -903q8 -127 2 -264h2q70 184 105 258l424 909h211l86 -917q12 -111 8 -248h2q37 106 88 227l412 938h192z" />
    <glyph glyph-name="X" unicode="X" horiz-adv-x="1200" 
d="M1292 1382l-544 -671l321 -711h-221l-238 569l-448 -569h-223l585 719l-293 663h207l224 -524l413 524h217z" />
    <glyph glyph-name="Y" unicode="Y" horiz-adv-x="1077" 
d="M1227 1382l-600 -884l-95 -498h-184l94 498l-254 884h193l127 -467q29 -106 57 -239h2q39 68 166 266l287 440h207z" />
    <glyph glyph-name="Z" unicode="Z" horiz-adv-x="1060" 
d="M592 172h319l-32 -172h-881l27 139l712 914q37 47 144 166q-127 -4 -287 -5h-344l33 168h852l-29 -143l-750 -950q-51 -63 -102 -121q41 4 338 4z" />
    <glyph glyph-name="bracketleft" unicode="[" horiz-adv-x="645" 
d="M778 1579l-28 -141h-226l-325 -1700h229l-29 -146h-397l379 1987h397z" />
    <glyph glyph-name="backslash" unicode="\" horiz-adv-x="886" 
d="M745 -330h-165l-351 1880h160z" />
    <glyph glyph-name="bracketright" unicode="]" horiz-adv-x="645" 
d="M682 1579l-379 -1987h-397l28 146h228l323 1700h-227l27 141h397z" />
    <glyph glyph-name="asciicircum" unicode="^" 
d="M999 772l-141 -70l-186 543l-379 -543l-117 68l449 612h145z" />
    <glyph glyph-name="underscore" unicode="_" 
d="M977 -365l-27 -145h-1126l26 145h1127z" />
    <glyph glyph-name="grave" unicode="`" horiz-adv-x="741" 
d="M668 1262l-88 -95l-281 240l111 117z" />
    <glyph glyph-name="a" unicode="a" horiz-adv-x="1101" 
d="M258 324q0 -186 104 -187q90 0 190 114q99 114 167 262t92 275l14 82q-74 18 -145 19q-142 0 -242 -91q-180 -164 -180 -474zM299 -20q-227 0 -227 303t151 518q227 317 807 203q-152 -799 -188 -1004h-183q27 129 119 414l-4 2q-205 -436 -475 -436z" />
    <glyph glyph-name="b" unicode="b" horiz-adv-x="1101" 
d="M854 694q0 186 -104 187q-90 0 -188 -114t-167 -260q-68 -146 -92 -274l-16 -86q66 -18 160 -18t178 52q148 91 204 319q25 96 25 194zM400 -16q-161 0 -318 34l280 1477h183l-96 -496q-20 -102 -113 -391l4 -2q84 197 205 315t268 117q227 0 227 -301t-152 -520
q-75 -105 -201 -169t-287 -64z" />
    <glyph glyph-name="c" unicode="c" horiz-adv-x="843" 
d="M645 883q-178 0 -278 -163t-101 -360q0 -215 213 -215q123 0 223 48v-156q-137 -53 -274 -53q-354 0 -354 335q0 303 158 509q159 206 425 206q109 1 215 -30l-41 -160q-88 39 -186 39z" />
    <glyph glyph-name="d" unicode="d" horiz-adv-x="1101" 
d="M258 324q0 -186 104 -187q90 0 190 114q99 114 167 262t92 275l14 82q-74 18 -145 19q-142 0 -242 -91q-180 -164 -180 -474zM299 -20q-227 0 -227 303t151 518q76 105 202 169t286 64q68 0 143 -12l88 473h182l-215 -1126q-34 -204 -67 -369h-180q23 123 116 414l-4 2
q-205 -436 -475 -436z" />
    <glyph glyph-name="e" unicode="e" horiz-adv-x="976" 
d="M752 782q0 55 -37 85t-101 30q-116 0 -198 -88t-119 -225q455 15 455 198zM934 805q0 -332 -660 -356q-10 -51 -10 -119q0 -117 47 -158t181 -41t276 57l6 -143q-160 -63 -345 -63t-268 78t-83 251q0 303 155 514q156 211 402 211q151 0 225 -66t74 -165z" />
    <glyph glyph-name="f" unicode="f" horiz-adv-x="694" 
d="M958 1489l-45 -152q-76 20 -143 21q-111 0 -174 -65t-88 -206l-12 -69h276l-31 -144h-274l-176 -925q-47 -246 -162 -358t-305 -111q-94 0 -176 18l45 156q68 -20 162 -20t157 68q63 69 97 243l178 929h-207l31 144h202l15 72q74 418 460 417q84 0 170 -18z" />
    <glyph glyph-name="g" unicode="g" horiz-adv-x="1097" 
d="M258 324q0 -186 104 -187q90 0 190 114q99 114 167 262t92 275l14 82q-74 18 -145 19q-142 0 -242 -91q-180 -164 -180 -474zM229 -522q-154 0 -274 39l43 178q120 -57 278 -57t250 72t124 238q32 165 124 458h-4q-201 -426 -471 -426q-227 0 -227 301t152 520
q224 317 806 203l-209 -1098q-82 -428 -592 -428z" />
    <glyph glyph-name="h" unicode="h" horiz-adv-x="1153" 
d="M1024 692l-133 -692h-180l125 651q45 229 -91 230q-88 0 -186 -112t-166 -260t-92 -280l-43 -229h-180l284 1495h181l-92 -477q-25 -135 -115 -402h4q82 182 203 302t263 120t196 -91t22 -255z" />
    <glyph glyph-name="i" unicode="i" horiz-adv-x="520" 
d="M453 1018l-195 -1018h-180l194 1018h181zM429 1460q50 0 83 -34t33 -82t-37 -86t-88 -38t-84 34q-33 32 -33 82t38 87t88 37z" />
    <glyph glyph-name="j" unicode="j" horiz-adv-x="528" 
d="M-176 -520q-76 0 -131 16l37 160q57 -23 114 -23q100 1 146 59t78 218l213 1108h180l-219 -1145q-39 -201 -134 -297t-284 -96zM435 1460q50 0 84 -34t34 -82t-38 -86t-88 -38t-83 34q-33 32 -33 82t37 87t87 37z" />
    <glyph glyph-name="k" unicode="k" horiz-adv-x="972" 
d="M979 965l-434 -408l307 -557h-221l-271 539l-102 -539h-180l284 1495h181l-174 -911l477 485z" />
    <glyph glyph-name="l" unicode="l" horiz-adv-x="520" 
d="M543 1495l-285 -1495h-180l284 1495h181z" />
    <glyph glyph-name="m" unicode="m" horiz-adv-x="1763" 
d="M1632 692l-131 -692h-182l125 651q45 231 -79 231t-261 -206q-137 -207 -182 -447l-43 -229h-181l125 651q45 231 -84 232q-119 0 -256 -207t-182 -447l-43 -229h-180l102 530q4 27 46 252t44 236h179q-25 -139 -113 -402h4q80 180 199 302t264 120q98 0 151 -51
q54 -51 54 -135t-50 -238l5 -2q80 184 198 306q119 120 259 120t192 -91t20 -255z" />
    <glyph glyph-name="n" unicode="n" horiz-adv-x="1153" 
d="M1024 692l-133 -692h-180l125 651q45 229 -91 230q-88 0 -186 -112t-166 -260t-92 -280l-43 -229h-180l102 530q4 27 46 252t44 236h179q-25 -133 -113 -402h4q82 182 203 302t263 120t196 -91t22 -255z" />
    <glyph glyph-name="o" unicode="o" horiz-adv-x="1103" 
d="M479 139q153 -1 263 145t110 371t-215 226q-162 0 -267 -153t-106 -353q0 -236 215 -236zM1044 670q0 -303 -178 -496t-417 -192q-373 0 -373 362q0 301 169 497t421 195q194 0 286 -98t92 -268z" />
    <glyph glyph-name="p" unicode="p" horiz-adv-x="1101" 
d="M854 694q0 186 -104 187q-90 0 -188 -114t-167 -260q-68 -146 -92 -274l-16 -77q73 -25 163 -25t175 52q148 92 204 317q25 96 25 194zM399 -14q-72 0 -143 12l-94 -504h-180l198 1036l90 488h181q-29 -137 -115 -408l4 -2q84 195 205 313t268 117q227 0 227 -303
t-151 -518q-76 -107 -202 -169t-288 -62z" />
    <glyph glyph-name="q" unicode="q" horiz-adv-x="1101" 
d="M258 324q0 -186 104 -187q90 0 190 114q99 114 167 262t92 275l14 82q-74 18 -145 19q-142 0 -242 -91q-180 -164 -180 -474zM299 -20q-227 0 -227 303t151 518q227 317 807 203l-287 -1510h-180l90 469q29 164 125 451l-4 2q-205 -436 -475 -436z" />
    <glyph glyph-name="r" unicode="r" horiz-adv-x="714" 
d="M780 1036l-37 -178q-88 24 -184 -76t-163 -253t-95 -300l-43 -229h-180l192 1018h176q-27 -139 -104 -375l4 -2q98 211 198 315t236 80z" />
    <glyph glyph-name="s" unicode="s" horiz-adv-x="780" 
d="M528 897q-88 0 -140 -41q-54 -41 -54 -97t32 -96t76 -73t92 -70q110 -87 109 -216q0 -128 -117 -225t-321 -97q-102 0 -174 14l32 166q82 -29 175 -29t154 41q60 41 60 118t-108 153q-45 32 -90 68q-109 87 -109 218q-1 131 105 218t299 87q84 0 174 -14l-33 -150
q-74 25 -162 25z" />
    <glyph glyph-name="t" unicode="t" horiz-adv-x="745" 
d="M456 141q76 0 142 17l-12 -154q-98 -20 -191 -20q-155 0 -203 76t-16 253l109 561h-207l28 144h205l64 330l190 43l-71 -373h276l-29 -144h-276l-100 -532q-21 -119 -3 -160t94 -41z" />
    <glyph glyph-name="u" unicode="u" horiz-adv-x="1153" 
d="M1085 1018l-102 -531q-8 -39 -47 -247t-43 -240h-180q35 168 112 401h-4q-81 -182 -201 -302q-120 -119 -264 -119q-281 1 -217 346l131 692h183l-125 -651q-45 -229 87 -229t270 219q138 220 177 431l43 230h180z" />
    <glyph glyph-name="v" unicode="v" horiz-adv-x="966" 
d="M1034 1001l-545 -1001h-188l-180 1018h194l95 -598q16 -100 22 -197h2l430 838z" />
    <glyph glyph-name="w" unicode="w" horiz-adv-x="1585" 
d="M397 221h2l389 797h191l74 -541q12 -106 22 -258h2l398 840l170 -55l-504 -1004h-207l-80 578q-14 104 -16 204h-2l-385 -782h-199l-113 1018h193l49 -543q16 -188 16 -254z" />
    <glyph glyph-name="x" unicode="x" horiz-adv-x="1050" 
d="M1092 973l-451 -469l264 -504h-215l-188 383l-402 -436l-143 100l463 475l-252 496h209l180 -379l397 430z" />
    <glyph glyph-name="y" unicode="y" horiz-adv-x="995" 
d="M-102 -520q-86 0 -144 14l31 166q59 -20 129 -20q116 0 228 120t112 322q0 401 -150 936h205q115 -449 115 -799q0 -55 -14 -127h2q236 414 460 967l170 -51q-428 -997 -778 -1344q-184 -184 -366 -184z" />
    <glyph glyph-name="z" unicode="z" horiz-adv-x="880" 
d="M522 170h197l-33 -170h-684l25 129l589 729q-119 -4 -249 -4h-191l33 164h663l-26 -129l-584 -723q111 4 260 4z" />
    <glyph glyph-name="braceleft" unicode="{" horiz-adv-x="686" 
d="M412 -408q-166 0 -222 102t-16 298l72 358q22 121 -18 170t-152 55l28 146q121 6 177 52q55 46 79 169l46 240q72 397 387 397h38l-26 -141q-105 0 -155 -54t-77 -196l-45 -238q-51 -276 -245 -303v-4q180 -27 129 -299l-70 -356q-27 -142 2 -196t131 -54l-26 -146h-37z
" />
    <glyph glyph-name="bar" unicode="|" horiz-adv-x="571" 
d="M557 1542l-389 -2048h-143l389 2048h143z" />
    <glyph glyph-name="braceright" unicode="}" horiz-adv-x="686" 
d="M322 1581q322 0 239 -397l-47 -242q-25 -119 15 -167t155 -54l-29 -146q-121 -6 -176 -53t-80 -172l-67 -356q-39 -209 -129 -304t-258 -96h-39l26 146q106 0 155 52q48 52 77 196l67 356q53 281 246 305v4q-184 27 -129 297l47 240q27 143 -1 195t-132 53l27 143h33z
" />
    <glyph glyph-name="asciitilde" unicode="~" 
d="M494 1221q76 0 132 -36t83 -78q73 -114 143 -114q132 0 149 183h138q-8 -148 -88 -234t-201 -86t-193 80q-29 34 -53 66q-61 81 -125 80q-63 -1 -99 -51t-44 -132h-137q8 147 88 235t207 87z" />
    <glyph glyph-name="nbspace" unicode="&#xa0;" horiz-adv-x="446" 
 />
    <glyph glyph-name="exclamdown" unicode="&#xa1;" horiz-adv-x="643" 
d="M414 674l-178 -1096h-213l237 1096h154zM386 1036q52 0 85 -34t33 -84q0 -52 -36 -88t-88 -36t-86 34t-34 85t37 87t89 36z" />
    <glyph glyph-name="cent" unicode="&#xa2;" 
d="M637 365q133 0 262 61l25 -147q-129 -57 -265 -68l-38 -211h-146l41 211q-330 29 -330 336q0 253 142 411t366 189l35 184h145l-36 -178q112 -4 223 -49l-64 -152q-102 51 -223 52q-174 0 -284 -120t-109 -302q0 -217 256 -217z" />
    <glyph glyph-name="sterling" unicode="&#xa3;" 
d="M820 1200q-179 0 -234 -146q-47 -127 -47 -323h327l-26 -143h-308q-2 -148 -51 -244t-166 -188q90 4 162 4h445l-31 -160h-836l25 127q166 125 216 215t50 246h-217l27 143h196q4 213 44 323q40 108 91 166t141 95t214 37q126 0 241 -35l-57 -158q-113 41 -206 41z" />
    <glyph glyph-name="currency" unicode="&#xa4;" 
d="M815 758q0 160 -166 160q-121 0 -193 -96t-71 -222q0 -168 162 -168q117 0 193 102t75 224zM981 786q0 -207 -137 -352l131 -213l-150 -98l-125 221q-90 -49 -179 -49t-142 27l-182 -199l-125 104l184 185q-41 59 -41 161q0 217 150 359l-121 198l151 95l113 -207
q76 37 173 37t157 -35l192 207l117 -107l-197 -198q31 -45 31 -136z" />
    <glyph glyph-name="yen" unicode="&#xa5;" 
d="M1221 1331l-502 -725h293l-23 -125h-340l-26 -143h338l-23 -125h-340l-39 -213h-186l41 213h-336l22 125h338l27 143h-338l25 125h294l-215 725h197l115 -411q27 -96 53 -230h2q51 92 150 242l268 399h205z" />
    <glyph glyph-name="brokenbar" unicode="&#xa6;" horiz-adv-x="571" 
d="M313 268l-145 -774h-143l145 774h143zM557 1542l-143 -754h-144l144 754h143z" />
    <glyph glyph-name="section" unicode="&#xa7;" horiz-adv-x="1042" 
d="M700 504q0 75 -37 132q-37 58 -54 84t-62 82t-64 81q-127 -82 -127 -217q0 -100 110 -239q15 -19 54 -67t53 -65q127 80 127 209zM549 1168q0 -107 162 -274q61 -65 111 -162t50 -197q0 -207 -215 -347q41 -76 41 -153q0 -153 -116 -263t-310 -110q-92 0 -170 23l37 157
q78 -27 148 -26q113 0 167 63t54 129q0 108 -163 279q-59 63 -111 158t-52 190q0 205 217 354q-45 83 -45 149q0 125 91 239q45 56 131 93t184 37t170 -16l-37 -156q-70 20 -129 21q-115 0 -165 -62t-50 -126z" />
    <glyph glyph-name="dieresis" unicode="&#xa8;" horiz-adv-x="1095" 
d="M427 1450q46 0 77 -30t31 -77q0 -46 -33 -79t-79 -33t-78 31q-32 30 -32 76t34 79t80 33zM820 1450q46 0 77 -30t31 -77q0 -46 -33 -79t-79 -33t-78 31q-32 30 -32 76t34 79t80 33z" />
    <glyph glyph-name="copyright" unicode="&#xa9;" horiz-adv-x="1517" 
d="M868 926q-86 0 -143 -54q-102 -98 -100 -270q0 -147 141 -147q86 0 166 30l4 -127q-100 -34 -219 -34t-186 66t-66 185q0 201 115 338t301 138q102 0 168 -27l-41 -129q-54 31 -140 31zM1335 698q1 228 -151 380t-375 153q-223 0 -390 -164q-167 -163 -167 -393t152 -382
t374 -153q223 0 390 165q167 166 167 394zM815 1370q285 0 475 -188t191 -478q0 -288 -213 -496t-499 -208t-475 188q-190 188 -190 478t213 497t498 207z" />
    <glyph glyph-name="ordfeminine" unicode="&#xaa;" horiz-adv-x="788" 
d="M569 1272q-115 0 -185 -104t-71 -224q0 -121 70 -121q86 0 165 116t107 267l11 56q-43 10 -97 10zM735 578l-26 -146h-592l26 146h592zM332 690q-172 0 -172 208t115 352q116 144 325 145q132 -1 234 -19q-106 -549 -125 -674h-150q12 63 62 205h-3q-106 -217 -286 -217z
" />
    <glyph glyph-name="guillemotleft" unicode="&#xab;" horiz-adv-x="1011" 
d="M555 895l-242 -293l146 -297l-150 -72l-178 377l295 363zM961 891l-256 -289l161 -291l-147 -73l-197 372l312 359z" />
    <glyph glyph-name="logicalnot" unicode="&#xac;" 
d="M1024 686l-90 -475h-162l62 321h-740l29 154h901z" />
    <glyph glyph-name="registered" unicode="&#xae;" horiz-adv-x="1128" 
d="M664 1116q46 0 72 24t26 64q0 39 -55 39h-48l-24 -127h29zM870 1219q0 -61 -39 -103t-100 -55q14 -20 29 -62l57 -145h-112l-70 193h-14l-37 -193h-97l88 467h152q143 0 143 -102zM666 748q132 0 232 102q101 102 101 241q0 138 -88 232t-219 94t-232 -100
q-102 -99 -102 -239t88 -235t220 -95zM1122 1098q0 -190 -140 -326q-140 -137 -324 -137t-305 121q-122 122 -122 312q1 190 141 326t324 136t305 -121t121 -311z" />
    <glyph glyph-name="macron" unicode="&#xaf;" horiz-adv-x="792" 
d="M823 1401l-24 -139h-506l24 139h506z" />
    <glyph glyph-name="degree" unicode="&#xb0;" horiz-adv-x="753" 
d="M524 1106q57 0 95 40t38 100q0 58 -28 100q-29 40 -89 40t-100 -40q-39 -42 -39 -106t33 -99t90 -35zM803 1254q0 -118 -87 -194q-87 -75 -207 -75q-121 0 -187 67q-66 66 -66 184t88 194t209 76t185 -68q64 -66 65 -184z" />
    <glyph glyph-name="plusminus" unicode="&#xb1;" 
d="M973 154l-31 -154h-946l31 154h946zM1106 840l-29 -152h-389l-78 -403h-174l78 403h-391l29 152h389l77 401h175l-76 -401h389z" />
    <glyph glyph-name="twosuperior" unicode="&#xb2;" horiz-adv-x="636" 
d="M643 1194q0 -70 -38 -128t-128 -126l-112 -84h241l-24 -127h-443l21 109l172 133q84 65 114 105t29 83q-1 66 -71 66t-128 -37l-28 112q98 48 195 48t149 -42t51 -112z" />
    <glyph glyph-name="threesuperior" unicode="&#xb3;" horiz-adv-x="1171" 
d="M621 1214q0 -121 -121 -172q90 -12 90 -108t-83 -158t-233 -63q-72 0 -129 16l31 109q57 -16 100 -17q150 0 150 107q0 80 -190 55l16 98h39q172 0 172 107q0 55 -78 55q-51 0 -113 -26l-18 98q78 33 175 33t145 -38t47 -96z" />
    <glyph glyph-name="acute" unicode="&#xb4;" horiz-adv-x="780" 
d="M698 1397l-331 -230l-70 103l313 254z" />
    <glyph glyph-name="paragraph" unicode="&#xb6;" horiz-adv-x="1157" 
d="M209 852q0 207 147 369q148 161 394 161l-166 -876q-186 0 -281 94q-94 94 -94 252zM1204 1382l-24 -143h-144l-272 -1436h-309l26 144h148l272 1435h303z" />
    <glyph glyph-name="periodcentered" unicode="&#xb7;" horiz-adv-x="479" 
d="M395 611q0 -54 -41 -94t-95 -40t-91 38t-37 91t41 93t95 40t91 -37t37 -91z" />
    <glyph glyph-name="cedilla" unicode="&#xb8;" horiz-adv-x="802" 
d="M281 -253q0 54 -37 114l164 57q109 -188 -97 -399h-157q66 70 96 122q31 52 31 106z" />
    <glyph glyph-name="onesuperior" unicode="&#xb9;" horiz-adv-x="618" 
d="M578 1331l-115 -602h-152l88 469l-153 -65l-8 118l200 80h140z" />
    <glyph glyph-name="ordmasculine" unicode="&#xba;" horiz-adv-x="841" 
d="M692 1134q0 131 -121 132q-109 0 -163 -96t-56 -207q0 -135 117 -136q98 0 161 88q62 88 62 219zM721 578l-29 -146h-571l29 146h571zM858 1151q0 -215 -122 -338t-290 -123q-258 0 -258 244q0 193 111 330t291 137q268 0 268 -250z" />
    <glyph glyph-name="guillemotright" unicode="&#xbb;" horiz-adv-x="1011" 
d="M557 598l-311 -358l-127 77l256 289l-162 291l147 74zM948 598l-295 -362l-129 77l242 293l-143 297l149 72z" />
    <glyph glyph-name="onequarter" unicode="&#xbc;" horiz-adv-x="1419" 
d="M1067 500l-215 -273h162zM1255 227l-22 -114h-100l-23 -113h-139l22 113h-291l11 106l299 383h213l-72 -375h102zM1378 1280l-1251 -1323l-100 90l1249 1323zM578 1331l-115 -602h-152l88 469l-153 -65l-8 118l200 80h140z" />
    <glyph glyph-name="onehalf" unicode="&#xbd;" horiz-adv-x="1427" 
d="M578 1331l-115 -602h-152l88 469l-153 -65l-8 118l200 80h140zM1378 1280l-1251 -1323l-100 90l1249 1323zM1270 463q0 -70 -39 -127t-127 -125l-113 -86h242l-27 -125h-440l20 106l172 136q82 63 113 103t31 83q0 68 -70 68t-129 -39l-29 114q98 47 196 47t148 -42
q52 -42 52 -113z" />
    <glyph glyph-name="threequarters" unicode="&#xbe;" horiz-adv-x="1421" 
d="M623 1214q0 -121 -119 -172q90 -12 90 -108t-83 -158t-232 -63q-72 0 -129 16l30 109q57 -16 101 -17q150 0 149 107q0 80 -190 55l16 98h39q88 0 130 30t42 77q0 55 -78 55q-55 0 -113 -26l-18 98q78 33 175 33t144 -37q46 -38 46 -97zM1380 1280l-1251 -1323l-100 90
l1249 1323zM1260 227l-23 -114h-100l-23 -113h-139l22 113h-290l10 106l299 383h213l-72 -375h103zM1071 500l-215 -273h162z" />
    <glyph glyph-name="questiondown" unicode="&#xbf;" horiz-adv-x="894" 
d="M236 -41q0 -90 95 -149t251 -78l-54 -168q-236 18 -364 122t-129 248q0 80 35 149t86 114t109 96t107 98q48 47 73 121q26 74 14 162h180q15 -119 -19 -213q-34 -95 -98 -155t-128 -111q-158 -124 -158 -236zM595 1036q52 0 86 -34t34 -84q0 -52 -37 -88t-89 -36t-86 34
t-34 85t37 87t89 36z" />
    <glyph glyph-name="Agrave" unicode="&#xc0;" horiz-adv-x="1239" 
d="M854 473l-86 508q-8 49 -23 190h-2q-55 -119 -92 -186l-276 -512h479zM1122 0h-198l-50 324h-577l-174 -324h-197l758 1382h205zM909 1591l-45 -106l-389 114l66 144z" />
    <glyph glyph-name="Aacute" unicode="&#xc1;" horiz-adv-x="1239" 
d="M854 473l-86 508q-8 49 -23 190h-2q-55 -119 -92 -186l-276 -512h479zM1122 0h-198l-50 324h-577l-174 -324h-197l758 1382h205zM1090 1599l-396 -114l-28 106l389 152z" />
    <glyph glyph-name="Acircumflex" unicode="&#xc2;" horiz-adv-x="1239" 
d="M854 473l-86 508q-8 49 -23 190h-2q-55 -119 -92 -186l-276 -512h479zM1122 0h-198l-50 324h-577l-174 -324h-197l758 1382h205zM1116 1585l-59 -102l-250 129l-287 -129l-41 98l342 174z" />
    <glyph glyph-name="Atilde" unicode="&#xc3;" horiz-adv-x="1239" 
d="M854 473l-86 508q-8 49 -23 190h-2q-55 -119 -92 -186l-276 -512h479zM1122 0h-198l-50 324h-577l-174 -324h-197l758 1382h205zM928 1505q-74 -1 -149 53t-111 54q-70 0 -131 -92l-91 67q90 152 232 152q74 0 148 -53t112 -54q70 0 131 90l92 -67q-88 -150 -233 -150z
" />
    <glyph glyph-name="Adieresis" unicode="&#xc4;" horiz-adv-x="1239" 
d="M854 473l-86 508q-8 49 -23 190h-2q-55 -119 -92 -186l-276 -512h479zM1122 0h-198l-50 324h-577l-174 -324h-197l758 1382h205zM599 1702q43 0 71 -28t28 -72q0 -43 -32 -74t-73 -31q-42 0 -71 29q-28 28 -28 70t31 74q32 32 74 32zM1028 1702q42 0 70 -28t28 -72
q0 -43 -30 -74t-74 -31q-43 0 -71 29q-27 30 -27 72t30 73q31 31 74 31z" />
    <glyph glyph-name="Aring" unicode="&#xc5;" horiz-adv-x="1239" 
d="M852 473l-82 494q-18 94 -25 202h-4q-43 -98 -100 -204l-266 -492h477zM911 1500q0 48 -29 81q-30 33 -77 33t-83 -36t-36 -85t30 -81t77 -32t83 36q35 36 35 84zM567 1480q0 104 74 174q74 68 169 68q94 0 156 -61t62 -139t-36 -132t-93 -81l223 -1309h-198l-50 324
h-577l-174 -324h-197l725 1323q-84 53 -84 157z" />
    <glyph glyph-name="AE" unicode="&#xc6;" horiz-adv-x="1550" 
d="M872 1227h-6q-84 -143 -186 -287l-330 -461h381zM1583 1382l-29 -155h-503l-84 -439h483l-29 -151h-483l-92 -479h522l-29 -158h-702l63 330h-446l-231 -330h-203l973 1382h790z" />
    <glyph glyph-name="Ccedilla" unicode="&#xc7;" horiz-adv-x="1150" 
d="M608 -82q109 -188 -96 -399h-158q66 70 97 122t30 106q0 54 -37 114zM889 1233q-241 0 -384 -161q-189 -212 -192 -580q0 -164 79 -252t254 -88t331 67l6 -164q-184 -72 -377 -71q-498 0 -497 475q0 376 200 649q96 131 250 209t333 78t318 -41l-51 -170q-141 49 -270 49
z" />
    <glyph glyph-name="Egrave" unicode="&#xc8;" horiz-adv-x="1005" 
d="M1038 1382l-30 -155h-512l-84 -439h489l-29 -151h-489l-90 -479h514l-31 -158h-696l262 1382h696zM844 1591l-43 -106l-389 114l65 144z" />
    <glyph glyph-name="Eacute" unicode="&#xc9;" horiz-adv-x="1005" 
d="M1038 1382l-30 -155h-512l-84 -439h489l-29 -151h-489l-90 -479h514l-31 -158h-696l262 1382h696zM1001 1599l-397 -114l-26 106l389 152z" />
    <glyph glyph-name="Ecircumflex" unicode="&#xca;" horiz-adv-x="1005" 
d="M1038 1382l-30 -155h-512l-84 -439h489l-29 -151h-489l-90 -479h514l-31 -158h-696l262 1382h696zM1036 1585l-59 -102l-250 129l-285 -129l-43 98l342 174z" />
    <glyph glyph-name="Edieresis" unicode="&#xcb;" horiz-adv-x="1005" 
d="M1038 1382l-30 -155h-512l-84 -439h489l-29 -151h-489l-90 -479h514l-31 -158h-696l262 1382h696zM500 1702q42 0 70 -28t28 -71q0 -42 -31 -74t-73 -32t-72 29q-29 30 -29 72t32 73t75 31zM928 1702q42 0 70 -28t28 -72q0 -43 -31 -74t-73 -31t-70 29q-29 30 -29 72
t31 73t74 31z" />
    <glyph glyph-name="Igrave" unicode="&#xcc;" horiz-adv-x="526" 
d="M524 1382l-262 -1382h-182l262 1382h182zM584 1591l-45 -106l-387 114l65 144z" />
    <glyph glyph-name="Iacute" unicode="&#xcd;" horiz-adv-x="526" 
d="M524 1382l-262 -1382h-182l262 1382h182zM758 1599l-398 -114l-28 106l389 152z" />
    <glyph glyph-name="Icircumflex" unicode="&#xce;" horiz-adv-x="526" 
d="M524 1382l-262 -1382h-182l262 1382h182zM782 1585l-59 -102l-250 129l-287 -129l-43 98l344 174z" />
    <glyph glyph-name="Idieresis" unicode="&#xcf;" horiz-adv-x="526" 
d="M524 1382l-262 -1382h-182l262 1382h182zM254 1702q42 0 70 -28t28 -72q0 -43 -30 -74t-74 -31q-43 0 -71 29q-27 30 -27 72t30 73q31 31 74 31zM682 1702q42 0 70 -28t28 -72q0 -43 -30 -74t-73 -31q-42 0 -71 29q-28 28 -28 70t30 74q31 32 74 32z" />
    <glyph glyph-name="Eth" unicode="&#xd0;" horiz-adv-x="1386" 
d="M1153 868q0 367 -424 367q-53 0 -213 -6l-86 -447h287l-29 -143h-285l-90 -475q78 -12 166 -12q174 0 309 64t212 171q153 211 153 481zM1350 887q0 -357 -218 -618q-108 -129 -283 -203t-398 -74q-82 0 -195 4t-158 4l121 639h-194l26 143h197l112 598l396 9
q306 0 450 -133t144 -369z" />
    <glyph glyph-name="Ntilde" unicode="&#xd1;" horiz-adv-x="1396" 
d="M1399 1382l-264 -1382h-215l-355 846q-61 145 -102 293q-39 -256 -86 -514l-117 -625h-182l262 1382h219l348 -827q51 -119 109 -303l84 493l117 637h182zM1030 1505q-74 -1 -148 53t-112 54q-70 0 -131 -92l-90 67q90 152 231 152q74 0 149 -53t111 -54q70 0 131 90
l93 -67q-88 -150 -234 -150z" />
    <glyph glyph-name="Ograve" unicode="&#xd2;" horiz-adv-x="1415" 
d="M1192 879q0 168 -83 263t-247 95q-242 0 -402 -214t-159 -513q0 -170 83 -266t239 -97q237 -1 403 213t166 519zM1391 899q1 -391 -231 -655t-564 -264q-246 0 -370 131t-124 372q0 379 228 649t563 271q240 0 369 -131t129 -373zM1042 1591l-45 -106l-387 114l66 144z
" />
    <glyph glyph-name="Oacute" unicode="&#xd3;" horiz-adv-x="1415" 
d="M1192 879q0 168 -83 263t-247 95q-242 0 -402 -214t-159 -513q0 -170 83 -266t239 -97q237 -1 403 213t166 519zM1391 899q1 -391 -231 -655t-564 -264q-246 0 -370 131t-124 372q0 379 228 649t563 271q240 0 369 -131t129 -373zM1241 1599l-397 -114l-29 106l389 152z
" />
    <glyph glyph-name="Ocircumflex" unicode="&#xd4;" horiz-adv-x="1415" 
d="M1192 879q0 168 -83 263t-247 95q-242 0 -402 -214t-159 -513q0 -170 83 -266t239 -97q237 -1 403 213t166 519zM1391 899q1 -391 -231 -655t-564 -264q-246 0 -370 131t-124 372q0 379 228 649t563 271q240 0 369 -131t129 -373zM1260 1585l-60 -102l-250 129l-286 -129
l-41 98l342 174z" />
    <glyph glyph-name="Otilde" unicode="&#xd5;" horiz-adv-x="1415" 
d="M1192 879q0 168 -83 263t-247 95q-242 0 -402 -214t-159 -513q0 -170 83 -266t239 -97q237 -1 403 213t166 519zM1391 899q1 -391 -231 -655t-564 -264q-246 0 -370 131t-124 372q0 379 228 649t563 271q240 0 369 -131t129 -373zM1079 1505q-73 -1 -147 53t-113 54
q-70 0 -129 -92l-92 67q90 152 231 152q74 0 149 -53t112 -54q70 0 131 90l92 -67q-88 -150 -234 -150z" />
    <glyph glyph-name="Odieresis" unicode="&#xd6;" horiz-adv-x="1415" 
d="M1192 879q0 168 -83 263t-247 95q-242 0 -402 -214t-159 -513q0 -170 83 -266t239 -97q237 -1 403 213t166 519zM1391 899q1 -391 -231 -655t-564 -264q-246 0 -370 131t-124 372q0 379 228 649t563 271q240 0 369 -131t129 -373zM742 1702q42 0 71 -28t29 -71
q0 -42 -32 -74t-74 -32t-70 29q-28 28 -29 70q0 42 32 74q31 32 73 32zM1172 1702q42 0 70 -28t28 -72q0 -43 -31 -74t-74 -31t-71 29q-28 30 -27 72q0 42 31 73q32 31 74 31z" />
    <glyph glyph-name="multiply" unicode="&#xd7;" 
d="M1102 948l-410 -344l279 -346l-123 -100l-277 344l-409 -344l-94 110l413 346l-280 347l123 98l278 -342l408 342z" />
    <glyph glyph-name="Oslash" unicode="&#xd8;" horiz-adv-x="1415" 
d="M297 508q0 -190 104 -277l549 998q-310 47 -500 -219q-153 -213 -153 -502zM1196 881q0 197 -117 286l-555 -1007q57 -14 133 -8q223 16 381 225t158 504zM1391 899q1 -391 -231 -655t-564 -264q-82 0 -160 20l-110 -207l-133 55l110 201q-201 121 -201 434
q0 381 228 651t563 269q72 0 143 -17l105 191l131 -53l-103 -185q222 -118 222 -440z" />
    <glyph glyph-name="Ugrave" unicode="&#xd9;" horiz-adv-x="1386" 
d="M590 -20q-518 0 -422 501l170 901h184l-174 -909q-34 -172 28 -255t242 -83t282 90q101 90 142 301l164 856h180l-165 -876q-98 -526 -631 -526zM999 1591l-45 -106l-389 114l66 144z" />
    <glyph glyph-name="Uacute" unicode="&#xda;" horiz-adv-x="1386" 
d="M590 -20q-518 0 -422 501l170 901h184l-174 -909q-34 -172 28 -255t242 -83t282 90q101 90 142 301l164 856h180l-165 -876q-98 -526 -631 -526zM1217 1599l-398 -114l-28 106l389 152z" />
    <glyph glyph-name="Ucircumflex" unicode="&#xdb;" horiz-adv-x="1386" 
d="M590 -20q-518 0 -422 501l170 901h184l-174 -909q-34 -172 28 -255t242 -83t282 90q101 90 142 301l164 856h180l-165 -876q-98 -526 -631 -526zM1214 1585l-59 -102l-250 129l-287 -129l-43 98l345 174z" />
    <glyph glyph-name="Udieresis" unicode="&#xdc;" horiz-adv-x="1386" 
d="M590 -20q-518 0 -422 501l170 901h184l-174 -909q-34 -172 28 -255t242 -83t282 90q101 90 142 301l164 856h180l-165 -876q-98 -526 -631 -526zM666 1702q42 0 70 -28t28 -72q0 -43 -31 -74t-74 -31t-71 29q-28 30 -27 72q0 42 31 73t74 31zM1095 1702q43 0 71 -28
t28 -71q0 -42 -32 -74t-74 -32t-70 29q-29 28 -29 70t32 74t74 32z" />
    <glyph glyph-name="Yacute" unicode="&#xdd;" horiz-adv-x="1077" 
d="M1227 1382l-600 -884l-95 -498h-184l94 498l-254 884h193l127 -467q29 -106 57 -239h2q39 68 166 266l287 440h207zM1042 1599l-397 -114l-27 106l390 152z" />
    <glyph glyph-name="Thorn" unicode="&#xde;" horiz-adv-x="1058" 
d="M891 805q0 219 -281 219q-98 0 -155 -10l-111 -576q57 -8 131 -8q193 0 305 108t111 267zM1085 836q0 -230 -175 -396t-468 -166q-78 0 -127 9l-53 -283h-184l262 1382h184l-39 -208q111 4 177 4q211 0 317 -91t106 -251z" />
    <glyph glyph-name="germandbls" unicode="&#xdf;" horiz-adv-x="1161" 
d="M788 1505q146 0 232 -65q86 -66 86 -162t-35 -158t-84 -100q-49 -37 -98 -70q-119 -80 -119 -169t88 -179q37 -37 74 -77q88 -95 88 -223t-116 -224t-310 -96q-98 0 -170 14l33 164q81 -29 169 -29t146 44q57 43 57 105q0 98 -87 186q-36 36 -71 75q-89 96 -87 207
q0 146 118 235q50 37 98 71q118 83 118 187q0 53 -39 87t-113 34q-246 0 -309 -328l-207 -1089q-49 -255 -161 -361t-306 -106q-59 0 -145 16l40 154q66 -16 129 -17q111 0 168 67t93 247l204 1079q94 481 516 481z" />
    <glyph glyph-name="agrave" unicode="&#xe0;" horiz-adv-x="1101" 
d="M874 1262l-88 -95l-280 240l110 117zM258 324q0 -186 104 -187q90 0 190 114q99 114 167 262t92 275l14 82q-74 18 -145 19q-142 0 -242 -91q-180 -164 -180 -474zM299 -20q-227 0 -227 303t151 518q227 317 807 203q-152 -799 -188 -1004h-183q27 129 119 414l-4 2
q-205 -436 -475 -436z" />
    <glyph glyph-name="aacute" unicode="&#xe1;" horiz-adv-x="1101" 
d="M1061 1397l-332 -230l-70 103l314 254zM258 324q0 -186 104 -187q90 0 190 114q99 114 167 262t92 275l14 82q-74 18 -145 19q-142 0 -242 -91q-180 -164 -180 -474zM299 -20q-227 0 -227 303t151 518q227 317 807 203q-152 -799 -188 -1004h-183q27 129 119 414l-4 2
q-205 -436 -475 -436z" />
    <glyph glyph-name="acircumflex" unicode="&#xe2;" horiz-adv-x="1101" 
d="M1032 1257l-88 -90l-170 174l-229 -174l-70 86l324 271zM258 324q0 -186 104 -187q90 0 190 114q99 114 167 262t92 275l14 82q-74 18 -145 19q-142 0 -242 -91q-180 -164 -180 -474zM299 -20q-227 0 -227 303t151 518q227 317 807 203q-152 -799 -188 -1004h-183
q27 129 119 414l-4 2q-205 -436 -475 -436z" />
    <glyph glyph-name="atilde" unicode="&#xe3;" horiz-adv-x="1101" 
d="M627 1329q-66 0 -127 -96l-90 74q86 158 227 157q71 0 143 -55t109 -55q68 0 125 94l90 -72q-86 -160 -230 -159q-72 0 -142 56t-105 56zM258 324q0 -186 104 -187q90 0 190 114q99 114 167 262t92 275l14 82q-74 18 -145 19q-142 0 -242 -91q-180 -164 -180 -474z
M299 -20q-227 0 -227 303t151 518q227 317 807 203q-152 -799 -188 -1004h-183q27 129 119 414l-4 2q-205 -436 -475 -436z" />
    <glyph glyph-name="adieresis" unicode="&#xe4;" horiz-adv-x="1101" 
d="M546 1450q46 0 76 -30t31 -77q-1 -46 -33 -79t-78 -33t-78 31q-32 30 -32 76t34 79t80 33zM939 1450q46 0 77 -30t31 -77q0 -46 -33 -79t-79 -33t-78 31q-32 30 -32 76t34 79t80 33zM258 324q0 -186 104 -187q90 0 190 114q99 114 167 262t92 275l14 82q-74 18 -145 19
q-142 0 -242 -91q-180 -164 -180 -474zM299 -20q-227 0 -227 303t151 518q227 317 807 203q-152 -799 -188 -1004h-183q27 129 119 414l-4 2q-205 -436 -475 -436z" />
    <glyph glyph-name="aring" unicode="&#xe5;" horiz-adv-x="1101" 
d="M905 1360q0 49 -28 82q-29 33 -77 33t-84 -37t-36 -86t31 -81t77 -32t82 36q35 36 35 85zM1024 1365q0 -95 -73 -164t-168 -69t-157 60q-62 59 -62 156t73 165q74 68 169 68t157 -60q61 -61 61 -156zM258 324q0 -186 104 -187q90 0 190 114q99 114 167 262t92 275l14 82
q-74 18 -145 19q-142 0 -242 -91q-180 -164 -180 -474zM299 -20q-227 0 -227 303t151 518q227 317 807 203q-152 -799 -188 -1004h-183q27 129 119 414l-4 2q-205 -436 -475 -436z" />
    <glyph glyph-name="ae" unicode="&#xe6;" horiz-adv-x="1562" 
d="M342 127q123 1 216 97t118 229q-146 -9 -238 -27t-154 -66t-62 -110q0 -63 33 -93q34 -30 87 -30zM1337 782q0 55 -38 86t-99 31q-114 0 -196 -87t-119 -224q225 14 339 55q113 41 113 139zM1522 805q0 -156 -148 -245t-516 -107q-8 -61 -8 -123q0 -117 48 -158t183 -41
t277 59v-147q-156 -61 -329 -61t-244 58t-97 169q-53 -94 -162 -161q-108 -66 -234 -66t-190 59q-63 59 -63 159q0 206 193 290q178 79 470 94l15 67q25 123 -13 183t-178 59q-139 0 -288 -86v160q174 71 326 71t216 -42t90 -115q58 67 152 111t224 44t202 -66
q74 -66 74 -165z" />
    <glyph glyph-name="ccedilla" unicode="&#xe7;" horiz-adv-x="843" 
d="M293 -253q0 54 -37 114l164 57q109 -188 -96 -399h-158q66 70 96 122q31 52 31 106zM645 883q-178 0 -278 -163t-101 -360q0 -215 213 -215q123 0 223 48v-156q-137 -53 -274 -53q-354 0 -354 335q0 303 158 509q159 206 425 206q109 1 215 -30l-41 -160q-88 39 -186 39z
" />
    <glyph glyph-name="egrave" unicode="&#xe8;" horiz-adv-x="976" 
d="M809 1262l-88 -95l-281 240l111 117zM752 782q0 55 -37 85t-101 30q-116 0 -198 -88t-119 -225q455 15 455 198zM934 805q0 -332 -660 -356q-10 -51 -10 -119q0 -117 47 -158t181 -41t276 57l6 -143q-160 -63 -345 -63t-268 78t-83 251q0 303 155 514q156 211 402 211
q151 0 225 -66t74 -165z" />
    <glyph glyph-name="eacute" unicode="&#xe9;" horiz-adv-x="976" 
d="M956 1397l-331 -230l-70 103l313 254zM752 782q0 55 -37 85t-101 30q-116 0 -198 -88t-119 -225q455 15 455 198zM934 805q0 -332 -660 -356q-10 -51 -10 -119q0 -117 47 -158t181 -41t276 57l6 -143q-160 -63 -345 -63t-268 78t-83 251q0 303 155 514q156 211 402 211
q151 0 225 -66t74 -165z" />
    <glyph glyph-name="ecircumflex" unicode="&#xea;" horiz-adv-x="976" 
d="M942 1257l-88 -90l-170 174l-229 -174l-70 86l324 271zM752 782q0 55 -37 85t-101 30q-116 0 -198 -88t-119 -225q455 15 455 198zM934 805q0 -332 -660 -356q-10 -51 -10 -119q0 -117 47 -158t181 -41t276 57l6 -143q-160 -63 -345 -63t-268 78t-83 251q0 303 155 514
q156 211 402 211q151 0 225 -66t74 -165z" />
    <glyph glyph-name="edieresis" unicode="&#xeb;" horiz-adv-x="976" 
d="M499 1450q47 0 77 -30t30 -77q0 -46 -33 -79t-79 -33t-77 31q-32 30 -32 76t34 79t80 33zM892 1450q46 0 76 -30t31 -77q-1 -46 -33 -79t-78 -33t-78 31q-32 30 -32 76t34 79t80 33zM752 782q0 55 -37 85t-101 30q-116 0 -198 -88t-119 -225q455 15 455 198zM934 805
q0 -332 -660 -356q-10 -51 -10 -119q0 -117 47 -158t181 -41t276 57l6 -143q-160 -63 -345 -63t-268 78t-83 251q0 303 155 514q156 211 402 211q151 0 225 -66t74 -165z" />
    <glyph glyph-name="igrave" unicode="&#xec;" horiz-adv-x="520" 
d="M547 1262l-88 -95l-281 240l111 117zM453 1018l-195 -1018h-180l194 1018h181z" />
    <glyph glyph-name="iacute" unicode="&#xed;" horiz-adv-x="520" 
d="M631 1397l-332 -230l-70 103l314 254zM453 1018l-195 -1018h-180l194 1018h181z" />
    <glyph glyph-name="icircumflex" unicode="&#xee;" horiz-adv-x="520" 
d="M678 1257l-88 -90l-170 174l-230 -174l-69 86l323 271zM453 1018l-195 -1018h-180l194 1018h181z" />
    <glyph glyph-name="idieresis" unicode="&#xef;" horiz-adv-x="520" 
d="M228 1450q46 0 77 -30t31 -77q0 -46 -33 -79t-79 -33t-78 31q-32 30 -32 76t34 79t80 33zM622 1450q46 0 76 -30t31 -77q0 -46 -33 -79t-79 -33q-45 0 -77 31q-32 30 -32 76t34 79t80 33zM453 1018l-195 -1018h-180l194 1018h181z" />
    <glyph glyph-name="eth" unicode="&#xf0;" horiz-adv-x="1095" 
d="M846 674q0 88 -54 148t-159 61q-166 0 -269 -150t-104 -342q0 -121 57 -187t159 -67q102 0 177 58q121 91 173 311q20 82 20 168zM455 -18q-184 0 -285 92q-100 92 -100 276q0 281 162 483q163 202 415 201q164 0 207 -92q-56 167 -135 279l-227 -95l-60 101l211 88
q-47 51 -131 129l180 80q76 -72 125 -135l225 92l56 -103l-211 -88q155 -242 155 -554t-164 -533t-423 -221z" />
    <glyph glyph-name="ntilde" unicode="&#xf1;" horiz-adv-x="1153" 
d="M596 1329q-66 0 -127 -96l-90 74q86 158 227 157q70 0 143 -55t109 -55q68 0 125 94l90 -72q-86 -160 -229 -159q-72 0 -142 56t-106 56zM1024 692l-133 -692h-180l125 651q45 229 -91 230q-88 0 -186 -112t-166 -260t-92 -280l-43 -229h-180l102 530q4 27 46 252t44 236
h179q-25 -133 -113 -402h4q82 182 203 302t263 120t196 -91t22 -255z" />
    <glyph glyph-name="ograve" unicode="&#xf2;" horiz-adv-x="1103" 
d="M838 1262l-88 -95l-281 240l111 117zM479 139q153 -1 263 145t110 371t-215 226q-162 0 -267 -153t-106 -353q0 -236 215 -236zM1044 670q0 -303 -178 -496t-417 -192q-373 0 -373 362q0 301 169 497t421 195q194 0 286 -98t92 -268z" />
    <glyph glyph-name="oacute" unicode="&#xf3;" horiz-adv-x="1103" 
d="M1001 1397l-331 -230l-70 103l313 254zM479 139q153 -1 263 145t110 371t-215 226q-162 0 -267 -153t-106 -353q0 -236 215 -236zM1044 670q0 -303 -178 -496t-417 -192q-373 0 -373 362q0 301 169 497t421 195q194 0 286 -98t92 -268z" />
    <glyph glyph-name="ocircumflex" unicode="&#xf4;" horiz-adv-x="1103" 
d="M1008 1257l-88 -90l-170 174l-230 -174l-69 86l323 271zM479 139q153 -1 263 145t110 371t-215 226q-162 0 -267 -153t-106 -353q0 -236 215 -236zM1044 670q0 -303 -178 -496t-417 -192q-373 0 -373 362q0 301 169 497t421 195q194 0 286 -98t92 -268z" />
    <glyph glyph-name="otilde" unicode="&#xf5;" horiz-adv-x="1103" 
d="M596 1329q-66 0 -127 -96l-90 74q86 158 227 157q70 0 143 -55t109 -55q68 0 125 94l90 -72q-86 -160 -229 -159q-72 0 -142 56t-106 56zM479 139q153 -1 263 145t110 371t-215 226q-162 0 -267 -153t-106 -353q0 -236 215 -236zM1044 670q0 -303 -178 -496t-417 -192
q-373 0 -373 362q0 301 169 497t421 195q194 0 286 -98t92 -268z" />
    <glyph glyph-name="odieresis" unicode="&#xf6;" horiz-adv-x="1103" 
d="M538 1450q46 0 76 -30t31 -77q0 -46 -33 -79t-79 -33q-45 0 -77 31q-32 30 -32 76t34 79t80 33zM931 1450q47 0 77 -30t30 -77q0 -46 -32 -79t-79 -33q-46 0 -78 31q-32 30 -32 76t34 79t80 33zM479 139q153 -1 263 145t110 371t-215 226q-162 0 -267 -153t-106 -353
q0 -236 215 -236zM1044 670q0 -303 -178 -496t-417 -192q-373 0 -373 362q0 301 169 497t421 195q194 0 286 -98t92 -268z" />
    <glyph glyph-name="divide" unicode="&#xf7;" 
d="M623 197q0 -51 -36 -88t-87 -37t-86 36t-35 87t36 88t87 37t86 -36t35 -87zM1077 686l-30 -154h-953l29 154h954zM662 1145q50 0 86 -36q34 -36 34 -87t-36 -88t-87 -37t-86 36t-35 87t37 88t87 37z" />
    <glyph glyph-name="oslash" unicode="&#xf8;" horiz-adv-x="1103" 
d="M254 381q0 -115 49 -172l381 674q-18 4 -66 4q-156 -6 -260 -156t-104 -350zM862 649q0 129 -71 182l-388 -688q43 -12 95 -10q152 9 258 157t106 359zM1044 670q0 -303 -178 -496t-417 -192q-76 0 -125 16l-119 -209l-109 55l111 199q-131 86 -131 301q0 299 165 496
t425 196q49 0 100 -10l115 205l108 -53l-106 -189q161 -90 161 -319z" />
    <glyph glyph-name="ugrave" unicode="&#xf9;" horiz-adv-x="1153" 
d="M791 1262l-89 -95l-280 240l110 117zM1085 1018l-102 -531q-8 -39 -47 -247t-43 -240h-180q35 168 112 401h-4q-81 -182 -201 -302q-120 -119 -264 -119q-281 1 -217 346l131 692h183l-125 -651q-45 -229 87 -229t270 219q138 220 177 431l43 230h180z" />
    <glyph glyph-name="uacute" unicode="&#xfa;" horiz-adv-x="1153" 
d="M999 1397l-331 -230l-70 103l313 254zM1085 1018l-102 -531q-8 -39 -47 -247t-43 -240h-180q35 168 112 401h-4q-81 -182 -201 -302q-120 -119 -264 -119q-281 1 -217 346l131 692h183l-125 -651q-45 -229 87 -229t270 219q138 220 177 431l43 230h180z" />
    <glyph glyph-name="ucircumflex" unicode="&#xfb;" horiz-adv-x="1153" 
d="M993 1257l-88 -90l-170 174l-229 -174l-70 86l324 271zM1085 1018l-102 -531q-8 -39 -47 -247t-43 -240h-180q35 168 112 401h-4q-81 -182 -201 -302q-120 -119 -264 -119q-281 1 -217 346l131 692h183l-125 -651q-45 -229 87 -229t270 219q138 220 177 431l43 230h180z
" />
    <glyph glyph-name="udieresis" unicode="&#xfc;" horiz-adv-x="1153" 
d="M530 1450q46 0 76 -30q31 -30 31 -77q0 -46 -33 -79t-79 -33t-78 31q-31 30 -31 76t34 79t80 33zM923 1450q47 0 77 -30t30 -77q0 -46 -33 -79t-79 -33t-77 31q-32 30 -32 76t34 79t80 33zM1085 1018l-102 -531q-8 -39 -47 -247t-43 -240h-180q35 168 112 401h-4
q-81 -182 -201 -302q-120 -119 -264 -119q-281 1 -217 346l131 692h183l-125 -651q-45 -229 87 -229t270 219q138 220 177 431l43 230h180z" />
    <glyph glyph-name="yacute" unicode="&#xfd;" horiz-adv-x="995" 
d="M905 1397l-332 -230l-69 103l313 254zM-102 -520q-86 0 -144 14l31 166q59 -20 129 -20q116 0 228 120t112 322q0 401 -150 936h205q115 -449 115 -799q0 -55 -14 -127h2q236 414 460 967l170 -51q-428 -997 -778 -1344q-184 -184 -366 -184z" />
    <glyph glyph-name="thorn" unicode="&#xfe;" horiz-adv-x="1101" 
d="M854 694q0 186 -104 187q-90 0 -188 -114t-167 -260q-68 -146 -92 -274l-16 -77q73 -25 163 -25t175 52q148 92 204 317q25 96 25 194zM399 -14q-72 0 -143 12l-94 -504h-180l380 2001h183l-78 -408q-41 -209 -129 -473l6 -2q84 190 203 308t266 118q227 0 227 -303
t-151 -518q-76 -107 -202 -169t-288 -62z" />
    <glyph glyph-name="ydieresis" unicode="&#xff;" horiz-adv-x="995" 
d="M415 1450q47 0 77 -30t30 -77q0 -46 -33 -79t-79 -33t-77 31q-32 30 -32 76t34 79t80 33zM808 1450q46 0 76 -30t31 -77q-1 -46 -33 -79t-78 -33t-78 31q-32 30 -32 76t34 79t80 33zM-102 -520q-86 0 -144 14l31 166q59 -20 129 -20q116 0 228 120t112 322
q0 401 -150 936h205q115 -449 115 -799q0 -55 -14 -127h2q236 414 460 967l170 -51q-428 -997 -778 -1344q-184 -184 -366 -184z" />
    <glyph glyph-name="dotlessi" unicode="&#x131;" horiz-adv-x="520" 
d="M453 1018l-195 -1018h-180l194 1018h181z" />
    <glyph glyph-name="Lslash" unicode="&#x141;" horiz-adv-x="874" 
d="M799 162l-33 -162h-670l111 578l-184 -64l-19 137l232 80l124 651h185l-113 -591l227 75l17 -141l-275 -90l-88 -473h486z" />
    <glyph glyph-name="lslash" unicode="&#x142;" horiz-adv-x="571" 
d="M608 852l10 -141l-215 -72l-120 -639h-183l111 582l-191 -64l-8 137l228 80l147 760h180l-135 -702z" />
    <glyph glyph-name="OE" unicode="&#x152;" horiz-adv-x="1732" 
d="M862 1237q-242 0 -402 -214t-159 -513q0 -170 83 -266t239 -97q115 0 217 29l194 1032q-86 29 -172 29zM596 -20q-246 0 -370 131t-124 372q0 379 228 649t563 271q104 0 203 -21h669l-30 -155h-512l-84 -439h487l-29 -151h-487l-90 -479h512l-31 -158h-684
q-123 -20 -221 -20z" />
    <glyph glyph-name="oe" unicode="&#x153;" horiz-adv-x="1714" 
d="M479 139q153 -1 263 145t110 371t-215 226q-162 0 -267 -153t-106 -353q0 -236 215 -236zM1491 782q0 55 -37 85t-100 30q-115 0 -198 -88t-120 -225q455 15 455 198zM1673 805q0 -332 -659 -356q-10 -51 -10 -119q0 -117 47 -158t180 -41t274 57l8 -143
q-158 -63 -354 -63q-264 0 -309 194q-74 -92 -180 -143t-221 -51q-373 0 -373 362q0 301 169 497q169 195 421 195t331 -194q147 195 377 194q152 0 226 -66t73 -165z" />
    <glyph glyph-name="Scaron" unicode="&#x160;" horiz-adv-x="929" 
d="M668 1247q-123 1 -200 -67t-77 -148q0 -136 149 -233q62 -41 124 -87t106 -117q43 -71 43 -161q0 -194 -154 -324t-393 -130q-135 0 -227 30l35 180q104 -45 209 -45q157 0 245 71t88 187t-148 212q-62 40 -124 84q-61 44 -104 115t-43 163q0 180 135 303t375 123
q110 -1 208 -21l-34 -168q-90 33 -213 33zM1022 1657l-342 -174l-295 170l59 102l250 -129l287 129z" />
    <glyph glyph-name="scaron" unicode="&#x161;" horiz-adv-x="780" 
d="M850 1438l-324 -271l-233 267l88 90l172 -174l227 174zM528 897q-88 0 -140 -41q-54 -41 -54 -97t32 -96t76 -73t92 -70q110 -87 109 -216q0 -128 -117 -225t-321 -97q-102 0 -174 14l32 166q82 -29 175 -29t154 41q60 41 60 118t-108 153q-45 32 -90 68
q-109 87 -109 218q-1 131 105 218t299 87q84 0 174 -14l-33 -150q-74 25 -162 25z" />
    <glyph glyph-name="Ydieresis" unicode="&#x178;" horiz-adv-x="1077" 
d="M1227 1382l-600 -884l-95 -498h-184l94 498l-254 884h193l127 -467q29 -106 57 -239h2q39 68 166 266l287 440h207zM517 1702q41 0 69 -28t28 -72q0 -43 -30 -74t-73 -31q-42 0 -71 29q-28 28 -28 70t31 74q32 32 74 32zM946 1702q42 0 70 -28t28 -72q0 -43 -30 -74
t-74 -31q-43 0 -71 29q-27 30 -27 72t30 73q31 31 74 31z" />
    <glyph glyph-name="Zcaron" unicode="&#x17d;" horiz-adv-x="1060" 
d="M592 172h319l-32 -172h-881l27 139l712 914q37 47 144 166q-127 -4 -287 -5h-344l33 168h852l-29 -143l-750 -950q-51 -63 -102 -121q41 4 338 4zM1098 1657l-344 -174l-295 170l59 102l250 -129l287 129z" />
    <glyph glyph-name="zcaron" unicode="&#x17e;" horiz-adv-x="880" 
d="M897 1438l-324 -271l-233 267l88 90l172 -174l227 174zM522 170h197l-33 -170h-684l25 129l589 729q-119 -4 -249 -4h-191l33 164h663l-26 -129l-584 -723q111 4 260 4z" />
    <glyph glyph-name="florin" unicode="&#x192;" 
d="M994 1286q-90 0 -154 -59t-101 -195l-86 -301h305l-22 -143h-320l-143 -518q-57 -205 -175 -301t-306 -97q-86 0 -182 27l36 156q96 -31 186 -31t154 58q63 58 101 190l145 516h-235l22 143h250l88 309q57 205 174 300t305 96q95 0 183 -25l-39 -156q-96 31 -186 31z" />
    <glyph glyph-name="circumflex" unicode="&#x2c6;" horiz-adv-x="868" 
d="M811 1257l-88 -90l-170 174l-229 -174l-70 86l324 271z" />
    <glyph glyph-name="caron" unicode="&#x2c7;" horiz-adv-x="868" 
d="M819 1438l-323 -271l-234 267l88 90l172 -174l228 174z" />
    <glyph glyph-name="breve" unicode="&#x2d8;" horiz-adv-x="802" 
d="M554 1198q-126 0 -176 79t-30 196h121q-8 -59 17 -98q26 -38 85 -38t100 36q40 36 50 100h131q-18 -117 -95 -196t-203 -79z" />
    <glyph glyph-name="dotaccent" unicode="&#x2d9;" horiz-adv-x="567" 
d="M458 1460q50 0 82 -34t33 -83q0 -50 -36 -87q-37 -36 -87 -36t-83 34q-33 32 -33 83t37 87t87 36z" />
    <glyph glyph-name="ring" unicode="&#x2da;" horiz-adv-x="768" 
d="M670 1337q0 49 -29 82t-77 33t-84 -37t-36 -86t31 -81t78 -32t82 36t35 85zM570 1559q94 -1 156 -61t62 -155t-72 -164t-168 -69q-95 0 -158 59q-62 59 -62 157t73 165q74 68 169 68z" />
    <glyph glyph-name="ogonek" unicode="&#x2db;" horiz-adv-x="581" 
d="M117 -236q0 -49 54 -49t108 60l75 -82q-104 -127 -248 -127q-88 0 -132 41t-44 111t54 148q54 79 143 134h203q-213 -119 -213 -236z" />
    <glyph glyph-name="tilde" unicode="&#x2dc;" horiz-adv-x="995" 
d="M467 1329q-66 0 -127 -96l-90 74q86 158 227 157q70 0 143 -55t109 -55q68 0 125 94l90 -72q-86 -160 -229 -159q-72 0 -142 56t-106 56z" />
    <glyph glyph-name="hungarumlaut" unicode="&#x2dd;" horiz-adv-x="989" 
d="M684 1436l-297 -269l-86 80l279 289zM1049 1417l-312 -250l-84 82l297 275z" />
    <glyph glyph-name="Delta" unicode="&#x394;" horiz-adv-x="1466" 
d="M1094 166l-213 1051l-605 -1051h818zM1321 0h-1335l841 1434h191z" />
    <glyph glyph-name="Omega" unicode="&#x3a9;" horiz-adv-x="1636" 
d="M1436 891q0 -185 -86 -388q-45 -105 -129 -203t-197 -161h287l-27 -139h-469l27 141q195 119 301 317t106 393t-85 299t-251 103q-109 0 -203 -45t-157 -117q-130 -151 -175 -354q-22 -94 -22 -184q0 -256 195 -410l-29 -143h-473l27 139h301q-193 145 -193 420
q0 150 52 297q115 331 384 470q148 77 326 77q226 0 358 -132t132 -380z" />
    <glyph glyph-name="mu" unicode="&#x3bc;" horiz-adv-x="1261" 
d="M412 -16q-102 0 -156 61l-76 -551h-192l291 1524h180l-125 -651q-20 -113 8 -171t90 -59q115 0 246 163t176 402l59 316h181l-138 -719q-18 -102 -10 -134t52 -32t89 72l70 -72q-94 -151 -240 -151t-147 143q0 68 31 160l-4 2q-45 -109 -164 -206t-221 -97z" />
    <glyph glyph-name="pi" unicode="&#x3c0;" horiz-adv-x="1343" 
d="M1012 121q64 0 116 14l-6 -133q-88 -20 -204 -20t-149 66q-34 66 -5 216l115 606h-367l-166 -870h-172l166 870h-219l29 148h1150l-30 -148h-219l-90 -469q-35 -182 -24 -231t75 -49z" />
    <glyph glyph-name="endash" unicode="&#x2013;" 
d="M1163 690l-30 -160h-1127l31 160h1126z" />
    <glyph glyph-name="emdash" unicode="&#x2014;" horiz-adv-x="2048" 
d="M1845 690l-30 -160h-1567l31 160h1566z" />
    <glyph glyph-name="quoteleft" unicode="&#x2018;" horiz-adv-x="489" 
d="M592 1452q-209 -174 -141 -293q35 -53 3 -113t-110 -60t-104 83q-41 121 86 283q74 92 196 180z" />
    <glyph glyph-name="quoteright" unicode="&#x2019;" horiz-adv-x="489" 
d="M431 1518q77 0 106 -82q41 -119 -84 -279q-74 -96 -201 -186l-68 80q209 172 140 292q-34 53 -2 114t109 61z" />
    <glyph glyph-name="quotesinglbase" unicode="&#x201a;" horiz-adv-x="489" 
d="M177 231q77 0 106 -81q41 -119 -84 -279q-74 -96 -199 -184l-70 77q209 176 142 295q-36 53 -4 113t109 59z" />
    <glyph glyph-name="quotedblleft" unicode="&#x201c;" horiz-adv-x="870" 
d="M592 1454q-209 -174 -141 -293q35 -53 3 -113t-110 -60t-104 83q-41 121 86 283q74 92 196 180zM979 1454q-207 -174 -139 -293q33 -53 1 -113t-109 -60t-103 83q-41 121 86 283q76 94 196 180z" />
    <glyph glyph-name="quotedblright" unicode="&#x201d;" horiz-adv-x="870" 
d="M431 1522q77 0 106 -82q41 -119 -84 -279q-74 -96 -201 -186l-68 80q211 174 140 293q-34 54 -2 114t109 60zM818 1522q77 0 106 -82q41 -119 -84 -279q-74 -96 -201 -186l-68 80q211 174 140 293q-33 54 -1 114t108 60z" />
    <glyph glyph-name="quotedblbase" unicode="&#x201e;" horiz-adv-x="870" 
d="M177 231q77 0 106 -81q41 -119 -84 -279q-74 -96 -199 -184l-70 77q209 176 142 295q-36 53 -4 113t109 59zM566 231q77 0 106 -81q41 -119 -84 -279q-76 -96 -201 -184l-68 77q209 178 140 295q-33 53 -1 113t108 59z" />
    <glyph glyph-name="dagger" unicode="&#x2020;" horiz-adv-x="901" 
d="M956 1284l-26 -143h-281l-6 -201l-135 -514h-135l59 514l72 201h-281l27 143h280l21 281h211l-86 -281h280z" />
    <glyph glyph-name="daggerdbl" unicode="&#x2021;" horiz-adv-x="901" 
d="M958 1298l-26 -143h-279l-8 -203l-72 -204h279l-27 -144h-278l-19 -266h-211l84 266h-280l26 144h281l6 204l72 203h-279l25 143h280l19 267h211l-82 -267h278z" />
    <glyph glyph-name="bullet" unicode="&#x2022;" horiz-adv-x="860" 
d="M458 856q102 0 172 -71t70 -173t-74 -177t-177 -75q-102 0 -173 71q-70 71 -70 173t75 177q74 75 177 75z" />
    <glyph glyph-name="ellipsis" unicode="&#x2026;" horiz-adv-x="1335" 
d="M172 229q51 -1 84 -35t33 -86t-38 -90t-88 -36q-50 0 -83 34t-33 86q0 51 37 89t88 38zM603 229q50 -1 84 -35t34 -86t-38 -90t-88 -36q-50 0 -84 34t-34 86q0 51 38 89t88 38zM1035 229q50 -1 83 -35t33 -86t-38 -90t-88 -36q-50 0 -83 34t-33 86q0 51 38 89t88 38z" />
    <glyph glyph-name="perthousand" unicode="&#x2030;" horiz-adv-x="2066" 
d="M1047 481q-89 0 -137 -87t-48 -188q0 -102 94 -102t142 86q47 86 47 189q0 102 -98 102zM616 1125q0 101 -94 101t-141 -86t-47 -188t98 -102q90 0 137 87t47 188zM1688 481q-90 0 -138 -87t-47 -188q1 -102 95 -102t141 86t47 189q0 102 -98 102zM1288 389
q0 -168 -97 -289t-247 -120q-225 0 -225 217q0 163 97 285t247 122q225 0 225 -215zM1440 1270l-1309 -1303l-94 92l1309 1305zM760 1135q0 -168 -98 -288t-248 -120q-223 0 -224 215q0 164 98 287t247 123q225 0 225 -217zM1929 389q0 -168 -97 -289t-247 -120
q-225 0 -225 217q0 163 97 285t247 122q225 0 225 -215z" />
    <glyph glyph-name="guilsinglleft" unicode="&#x2039;" horiz-adv-x="628" 
d="M561 891l-250 -289l148 -291l-146 -75l-182 376l303 359z" />
    <glyph glyph-name="guilsinglright" unicode="&#x203a;" horiz-adv-x="628" 
d="M551 594l-303 -358l-129 79l250 289l-148 291l146 76z" />
    <glyph glyph-name="fraction" unicode="&#x2044;" horiz-adv-x="839" 
d="M1116 1331l-1141 -1386l-116 100l1140 1385z" />
    <glyph glyph-name="uni20AC" unicode="&#x20ac;" 
d="M887 1202q-281 0 -410 -319h389l-22 -123h-412q-25 -82 -35 -182h410l-21 -123h-397q-6 -158 56 -239t208 -81t291 60l31 -146q-164 -70 -344 -69q-244 0 -343 122t-91 353h-181l23 123h168q10 92 37 182h-170l22 123h187q80 209 236 339q157 130 401 130q131 -1 264 -56
l-62 -151q-106 57 -235 57z" />
    <glyph glyph-name="trademark" unicode="&#x2122;" horiz-adv-x="1402" 
d="M690 1382l-20 -112h-146l-88 -463h-139l90 463h-149l20 112h432zM1380 1382l-20 -575h-139l12 301l8 111l-41 -95l-151 -317h-138l-28 321l-6 91l-21 -76l-111 -336h-129l197 575h174l29 -315l4 -94l33 86l155 323h172z" />
    <glyph glyph-name="partialdiff" unicode="&#x2202;" horiz-adv-x="1286" 
d="M907 524q0 94 -61 158t-192 63q-131 0 -227 -107q-95 -108 -95 -265q0 -105 58 -167t182 -62t230 110t105 270zM1206 958q0 -351 -171 -650q-83 -144 -217 -234t-309 -90t-268 99t-94 255q0 242 158 402t389 159q109 0 194 -50t111 -140q0 20 12 107q36 288 -105 431
q-105 106 -290 107l52 151q258 -7 398 -157t140 -390z" />
    <glyph glyph-name="product" unicode="&#x220f;" horiz-adv-x="1710" 
d="M1677 1495l-28 -158h-213l-355 -1843h-174l357 1843h-623l-354 -1843h-174l356 1843h-213l31 158h1390z" />
    <glyph glyph-name="summation" unicode="&#x2211;" horiz-adv-x="1359" 
d="M1278 1495l-29 -158h-762l428 -839l-759 -840h802l-32 -164h-1037l27 144l786 874l-421 840l26 143h971z" />
    <glyph glyph-name="minus" unicode="&#x2212;" 
d="M1077 690l-30 -160h-953l31 160h952z" />
    <glyph glyph-name="radical" unicode="&#x221a;" horiz-adv-x="1236" 
d="M1366 1552l-764 -1552h-209l-133 879h-182l28 139h326l76 -592q20 -150 24 -233h5q39 90 96 217l532 1142h201z" />
    <glyph glyph-name="infinity" unicode="&#x221e;" horiz-adv-x="2007" 
d="M528 795q-84 0 -150 -66q-67 -65 -67 -143q0 -156 152 -156q70 0 161 46t232 138q-100 88 -172 134t-156 47zM1694 657q0 59 -39 99t-112 39q-73 0 -163 -47t-231 -140q197 -178 305 -178t174 66t66 161zM1876 686q0 -164 -119 -291t-313 -127t-455 234
q-355 -234 -529 -234t-252 74t-77 197q0 178 127 297t299 118q117 0 227 -61t236 -172q170 111 300 172t241 61q159 0 237 -74t78 -194z" />
    <glyph glyph-name="integral" unicode="&#x222b;" horiz-adv-x="690" 
d="M834 1495l-31 -162q-49 16 -96 17q-78 0 -125 -70t-80 -242t-82 -487t-98 -577q-50 -262 -144 -381q-94 -118 -260 -117q-49 0 -102 14l30 162q43 -16 108 -16t112 68t79 232t80 485q49 321 100 587t147 383t263 116q52 0 99 -12z" />
    <glyph glyph-name="approxequal" unicode="&#x2248;" 
d="M1020 403q-133 -115 -277 -114q-102 0 -207 61q-106 62 -192 62t-199 -86l-63 127q145 115 274 114q96 0 206 -62q110 -63 199 -63t197 90zM815 645q-99 -1 -205 61t-195 62t-202 -86l-61 127q141 117 280 117q96 0 207 -62t191 -63q80 0 196 90l61 -127
q-127 -119 -272 -119z" />
    <glyph glyph-name="notequal" unicode="&#x2260;" 
d="M1090 860l-29 -153h-336l-117 -197h416l-31 -152h-473l-168 -284h-166l168 284h-272l29 152h331l117 197h-409l26 153h469l172 289h168l-172 -289h277z" />
    <glyph glyph-name="lessequal" unicode="&#x2264;" 
d="M924 154l-31 -154h-848l31 154h848zM1081 1145l-655 -377l522 -383l-123 -125l-655 518l817 498z" />
    <glyph glyph-name="greaterequal" unicode="&#x2265;" 
d="M924 154l-31 -154h-848l31 154h848zM1059 758l-819 -498l-93 129l654 379l-525 383l123 125z" />
    <glyph glyph-name="lozenge" unicode="&#x25ca;" horiz-adv-x="1243" 
d="M1028 680l-266 518l-445 -502l265 -510zM1225 686l-625 -704h-115l-364 716l627 703h110z" />
    <glyph glyph-name="fi" unicode="&#xfb01;" horiz-adv-x="1177" 
d="M852 1356q-293 0 -344 -273l-12 -65h614l-195 -1018h-180l166 874h-434l-174 -925q-47 -246 -162 -358t-305 -111q-92 0 -176 18l45 156q68 -20 162 -20t157 68q63 69 97 243l176 929h-205l29 144h206l7 45q70 444 540 444q146 0 283 -37l-64 -153q-111 39 -231 39z" />
    <glyph glyph-name="fl" unicode="&#xfb02;" horiz-adv-x="1175" 
d="M1196 1477l-281 -1477h-180l256 1343q-261 46 -377 -43q-76 -57 -98 -180l-20 -102h270l-31 -144h-268l-174 -925q-47 -246 -162 -358t-305 -111q-92 0 -176 18l45 156q68 -20 162 -20t157 68q63 69 97 243l176 929h-205l29 144h204l21 110q72 379 508 379q178 1 352 -30
z" />
    <glyph glyph-name="Euro" 
d="M887 1202q-281 0 -410 -319h389l-22 -123h-412q-25 -82 -35 -182h410l-21 -123h-397q-6 -158 56 -239t208 -81t291 60l31 -146q-164 -70 -344 -69q-244 0 -343 122t-91 353h-181l23 123h168q10 92 37 182h-170l22 123h187q80 209 236 339q157 130 401 130q131 -1 264 -56
l-62 -151q-106 57 -235 57z" />
    <glyph glyph-name="apple" horiz-adv-x="2131" 
d="M45 756l262 -19q-4 -45 0 -90l-262 -18q-4 66 0 127zM1083 727q9 0 9 10t-2 11q3 -11 -7 -21zM1079 731q6 0 4 4t2 4v2q-6 0 -4 -4t-2 -4v-2zM1069 731q2 0 6 4l-2 -4h2l2 10q-4 0 -8 -4q-2 -6 0 -6zM1063 738q0 -10 2 -11q-4 10 6 21q-8 0 -8 -10zM1059 733q-2 0 -4 2
q4 2 6 4v2q-6 2 -8 -6q0 -6 6 -4v2zM1053 741h-2q-4 -12 -4 -6l2 6h-2l-3 -6v-4q4 -2 7 4zM1042 731v2h-4l4 12h-2l-4 -12q0 -2 2 -2h4zM1331 -88l-33 76l-495 -125l53 -127h424l29 65l-15 29l-151 -39l-25 68zM1329 74l-33 84l-493 -127l33 -80zM1323 309h-514v-110l33 -78
l481 121v67zM1065 692q-55 0 -90 -6l31 -293h122l27 293q-35 6 -90 6zM1067 784q117 0 262 -41q10 -3 13 -29t-5 -48q-9 -22 -29 -15q-20 8 -77 23l-29 -281h121q135 119 135 290t-115 287t-277 116t-276 -116q-116 -114 -116 -288t139 -289h119l-33 281l-74 -25
q-18 -6 -26 17q-8 22 -5 48t15 29q141 41 258 41zM1563 690q0 -207 -140 -342v-158l-32 -10l65 -151l-61 -17l61 -147l-63 -15l20 -51l-59 -139h-105q-6 -38 -58 -64t-124 -26t-124 27t-56 63h-107l-102 250l63 16l-63 152l70 18l-39 94v160q-137 141 -137 345t144 348
q144 145 350 145t352 -146t145 -352zM2087 756q6 -63 0 -125l-258 18q4 43 0 88zM1565 1253l168 193q49 -39 88 -88l-193 -166q-34 38 -63 61zM1112 1425q-47 4 -90 0l-16 254q63 4 122 0zM569 1251q-24 -20 -63 -59l-195 170q55 59 88 86z" />
    <glyph glyph-name="Grave" horiz-adv-x="741" 
d="M784 1591l-45 -106l-387 114l64 144z" />
    <glyph glyph-name="Acute" horiz-adv-x="780" 
d="M809 1599l-397 -114l-27 106l389 152z" />
    <glyph glyph-name="Dieresis" horiz-adv-x="1095" 
d="M530 1702q42 0 71 -28q28 -28 28 -71q0 -42 -32 -74t-74 -32q-43 0 -71 29q-28 30 -28 72t32 73t74 31zM958 1702q42 0 71 -28q28 -28 28 -72q0 -43 -31 -74t-73 -31q-43 0 -71 29q-28 30 -28 72t31 73t73 31z" />
    <glyph glyph-name="Circumflex" horiz-adv-x="868" 
d="M958 1585l-59 -102l-250 129l-287 -129l-40 98l342 174z" />
    <glyph glyph-name="Tilde" horiz-adv-x="995" 
d="M856 1505q-74 -1 -148 53t-112 54q-72 0 -131 -92l-90 67q90 152 231 152q74 0 149 -53t111 -54q70 0 131 90l90 -67q-88 -150 -231 -150z" />
    <glyph glyph-name="Caron" horiz-adv-x="868" 
d="M971 1657l-342 -174l-295 170l59 102l248 -129l287 129z" />
  </font>
</defs>
</svg>
